# xmcd
#
# Track frame offsets: 
#        150
#        18020
#        32467
#        49701
#        65767
#        82209
#        93878
#        111112
#        125720
#        141781
#        154740
#        169495
#
# Disc length: 2462 seconds
#
# Revision: 0
# Processed by: cddbd v1.5.2PL0 Copyright (c) Steve Scherf et al.
# Submitted via: ExactAudioCopy v1.0b3
#
DISCID=9e099c0c
DTITLE=Bomshel - Fight Like A Girl
DYEAR=2009
DGENRE=Country
TTITLE0=19 And Crazy
TTITLE1=Just Fine
TTITLE2=Arizona
TTITLE3=Fight Like A Girl
TTITLE4=Just This Way
TTITLE5=Karma Is A Female Dog
TTITLE6=Love Me For Me
TTITLE7=You
TTITLE8=Thank You
TTITLE9=Just A Girl
TTITLE10=Fiddle
TTITLE11=Slowdown
EXTD=
EXTT0=
EXTT1=
EXTT2=
EXTT3=
EXTT4=
EXTT5=
EXTT6=
EXTT7=
EXTT8=
EXTT9=
EXTT10=
EXTT11=
PLAYORDER=
